<svg width="40" height="60" viewBox="0 0 40 60" fill="none" xmlns="http://www.w3.org/2000/svg">
<g clip-path="url(#clip0)">
<path d="M0 14.9853V29.8843L12.4878 27.1088V21.0641C12.4878 19.6524 13.472 18.4317 14.8516 18.1323L22.4781 16.4773V24.8885L34.9659 22.113V29.6793C34.9659 31.0848 33.9901 32.3019 32.6183 32.6075L22.4781 34.8667V41.2145C22.4781 42.6206 21.5015 43.838 20.1289 44.143L12.4878 45.841V37.0925L0 39.8746V59.9414L7.7894 58.2104C10.5346 57.6004 12.4878 55.1655 12.4878 52.3533V52.1712L36.8243 46.7916C38.6565 46.3866 39.9609 44.7624 39.9609 42.8859V6.10522L0 14.9853Z" fill="#263238"/>
<path d="M34.9659 4.7176L0 12.4878V12.2531C0 10.9137 0.8879 9.7365 2.1758 9.3685L34.9659 0V4.7176Z" fill="#263238"/>
</g>
<defs>
<clipPath id="clip0">
<rect width="39.961" height="59.9415" fill="white"/>
</clipPath>
</defs>
</svg>
