<?xml version="1.0" encoding="iso-8859-1"?>
<!-- Generator: Adobe Illustrator 24.0.3, SVG Export Plug-In . SVG Version: 6.00 Build 0)  -->
<svg version="1.1" id="&#x5716;&#x5C64;_1" xmlns="http://www.w3.org/2000/svg" xmlns:xlink="http://www.w3.org/1999/xlink" x="0px"
	 y="0px" viewBox="0 0 39.961 64.9366" enable-background="new 0 0 39.961 64.9366" xml:space="preserve">
<g>
	<path fill="#FAFAFA" d="M0,14.9853v13.6503l12.4878-2.7755v-3.9897c0-1.8823,1.3123-3.5098,3.1517-3.909l6.8386-1.484v7.1623
		l12.4878-2.7755v12.4691l-12.4878,2.7822v4.2968c0,1.8748-1.3021,3.498-3.1323,3.9048l-6.858,1.524v-7.4998L0,41.1234v23.8132
		l6.2233-1.3829c3.6603-0.8134,6.2645-4.0599,6.2645-7.8095v-3.5729l24.3365-5.3796c1.8323-0.405,3.1367-2.0292,3.1367-3.9057
		V6.1051L0,14.9853z"/>
	<path fill="#FAFAFA" d="M34.9659,4.7176L0,12.4878V12.487c0-1.4778,0.9797-2.7766,2.4007-3.1826L34.9659,0V4.7176z"/>
</g>
</svg>
