<svg xmlns="http://www.w3.org/2000/svg" viewBox="0 0 24 24" width="24" height="24">
	<style>
		tspan { white-space:pre }
		.shp0 { fill: #1de9b6 } 
	</style>
	<path id="Layer" fill-rule="evenodd" class="shp0" d="M12 2C12.92 2 13.83 2.18 14.68 2.53C15.53 2.88 16.3 3.4 16.95 4.05C17.6 4.7 18.12 5.47 18.47 6.32C18.82 7.17 19 8.08 19 9C19 14.25 12 22 12 22C12 22 5 14.25 5 9C5 8.08 5.18 7.17 5.53 6.32C5.88 5.47 6.4 4.7 7.05 4.05C7.7 3.4 8.47 2.88 9.32 2.53C10.17 2.18 11.08 2 12 2ZM12.96 11.31C13.26 11.18 13.54 11 13.77 10.77C14 10.54 14.18 10.26 14.31 9.96C14.44 9.65 14.5 9.33 14.5 9C14.5 8.67 14.44 8.35 14.31 8.04C14.18 7.74 14 7.46 13.77 7.23C13.54 7 13.26 6.82 12.96 6.69C12.65 6.56 12.33 6.5 12 6.5C11.67 6.5 11.35 6.56 11.04 6.69C10.74 6.82 10.46 7 10.23 7.23C10 7.46 9.82 7.74 9.69 8.04C9.56 8.35 9.5 8.67 9.5 9C9.5 9.33 9.56 9.65 9.69 9.96C9.82 10.26 10 10.54 10.23 10.77C10.46 11 10.74 11.18 11.04 11.31C11.35 11.44 11.67 11.5 12 11.5C12.33 11.5 12.65 11.44 12.96 11.31Z" />
</svg>